<?xml version="1.0" encoding="utf-8"?>
<!-- Generator: Adobe Illustrator 23.0.3, SVG Export Plug-In . SVG Version: 6.00 Build 0)  -->
<svg version="1.1" id="Layer_1" xmlns="http://www.w3.org/2000/svg" xmlns:xlink="http://www.w3.org/1999/xlink" x="0px" y="0px"
	 viewBox="0 0 558 558" style="enable-background:new 0 0 558 558;" xml:space="preserve">
<style type="text/css">
	.st0{fill:#281214;}
	.st1{fill:#EB2441;}
</style>
<path class="st0" d="M536.7,319.7c-1.9-7.6-4.6-14.9-8.1-21.9l-57.3-154.6c-10.7-32.2-40.7-53.9-74.6-53.8
	c-43.1,0-78.4,35.3-78.6,78.4l-0.1,22.6h-78.9l-0.1-22.6c-0.1-38.5-28.1-71.2-66.2-77.3c-38-6.1-74.9,16.2-87,52.7L28.4,297.9
	c-3.4,7-6.1,14.3-8.1,21.9c0,0.2-0.1,0.3-0.1,0.5C6.7,375.1,36.4,431.5,89.4,451.3c53,19.8,112.4-3.3,138.2-53.7l27.8,16.4
	c14.3,8.4,31.9,8.4,46.2,0.1l27.9-16.3c25.8,50.3,85.2,73.3,138.2,53.5c53-19.8,82.7-76.2,69.1-131.1
	C536.8,320,536.8,319.9,536.7,319.7z M396.8,114.3c23.2,0,43.8,14.9,51,36.9c0.1,0.1,0.1,0.3,0.2,0.4l36.7,98.9
	c-47.3-27.5-107.5-16.5-142.1,25.8l0.5-108.6C343.2,138.2,367.2,114.4,396.8,114.3z M317.9,215.4l-0.4,74.7h-78l-0.4-74.7H317.9z
	 M109.2,151.7c0.1-0.1,0.1-0.3,0.2-0.4c8.2-25,33.4-40.3,59.4-36.2c26,4.1,45.2,26.5,45.3,52.8l0.5,108.6
	c-34.6-42.3-94.8-53.3-142.1-25.8L109.2,151.7z M128.4,433.4c-26.6,0-51.6-12.2-68-33.1c-16.4-20.9-22.3-48.1-16-73.9l6.9-18.5
	c18-35.7,58.2-54.3,97.1-45.1c38.9,9.2,66.4,44,66.5,84v0.3C214.8,394.8,176.1,433.4,128.4,433.4z M289.1,392.6
	c-6.5,3.8-14.5,3.8-21,0l-31.6-18.6c2.1-8.5,3.2-17.2,3.3-25.9c0-0.1,0-0.2,0-0.3v-1.2l-0.1-31.5h77.7l-0.1,28c0,0.3,0,0.6,0,0.9
	c0,1,0,2,0,3c0,9.2,1.1,18.3,3.4,27.2L289.1,392.6z M428.7,433.4c-42.6,0-78.8-31-85.5-73c-6.6-42.1,18.3-82.7,58.9-95.8
	c40.5-13.1,84.5,5.3,103.8,43.3l6.9,18.5c6.3,25.8,0.4,53.1-16,73.9C480.3,421.3,455.2,433.4,428.7,433.4z"/>
<path class="st1" d="M128.4,282.6c-35.6,0-64.4,28.8-64.4,64.4s28.8,64.4,64.4,64.4c35.6,0,64.4-28.8,64.4-64.4
	C192.7,311.4,163.9,282.6,128.4,282.6z M128.4,386.4c-21.8,0-39.5-17.7-39.5-39.5c0-21.8,17.7-39.5,39.5-39.5
	c21.8,0,39.5,17.7,39.5,39.5C167.9,368.7,150.2,386.4,128.4,386.4z"/>
<path class="st1" d="M427.2,282.6c-35.6,0-64.4,28.8-64.4,64.4s28.8,64.4,64.4,64.4c35.6,0,64.4-28.8,64.4-64.4
	C491.6,311.4,462.8,282.6,427.2,282.6z M427.2,386.4c-21.8,0-39.5-17.7-39.5-39.5c0-21.8,17.7-39.5,39.5-39.5
	c21.8,0,39.5,17.7,39.5,39.5C466.7,368.7,449,386.4,427.2,386.4z"/>
</svg>
